<svg xmlns="http://www.w3.org/2000/svg" version="1.1" viewBox="0 0 7279.1 768">
  <defs>
    <style>.st11{fill:#295cfe;}</style>
  </defs>
  <path fill="#000" d="M1522.1,15c1.8.6,3,2,3.5,4,119.8,244.3,239.7,488.7,359.5,733-52.7,1.2-105.3,1.3-158,.5-22.9-50.9-45.5-101.9-68-153-91.3-.8-182.7-.7-274,.5-23.1,50.8-46.1,101.6-69,152.5-51.3.8-102.7.7-154-.5,120.3-245.6,240.3-491.2,360-737ZM1523.1,278c27.4,65.7,54.7,131.5,82,197.5-55,.7-110,.7-165,0,28.2-65.6,55.8-131.5,83-197.5Z"/>
  <path fill="#000" d="M905.1,20c61.8-3.5,121.5,6,179,28.5,14.3,6.3,28.2,13.4,41.5,21.5-1.6,41.2-5.6,82.2-12,123-.4,4.9-1.6,9.6-3.5,14-62.6-43.5-131.9-62.6-208-57.5-34.1,4.3-59.6,21.1-76.5,50.5-12.2,33.9-3,60.4,27.5,79.5,10.6,6.4,21.6,12.1,33,17,32.4,11.8,64.7,23.8,97,36,32.7,12.8,63,29.5,91,50,44.2,34.2,68,79.4,71.5,135.5,5.3,63.6-12,119.9-52,169-33.3,35.5-73.8,59-121.5,70.5-98.2,21.8-191.9,9.5-281-37-6.8-3.8-13.2-8-19.5-12.5,2.1-46.8,7.4-93.1,16-139,20.4,17.8,43.3,32,68.5,42.5,40.5,17.7,82.8,27.2,127,28.5,25.1.7,48.8-4.8,71-16.5,25.8-17.7,39.5-42.3,41-74-.9-28.5-12.2-51.8-34-70-17.9-13.8-37.6-24.8-59-33-26.2-10.1-52.5-19.7-79-29-26.2-10-51.2-22.3-75-37-56.8-36.9-84.5-89.6-83-158,2.1-75.6,36.4-130.9,103-166,43.3-21.4,89-33.6,137-36.5Z"/>
  <path fill="#000" d="M0,30c50.7,3.8,101,10.1,151,19-.2,144,0,288,.5,432,1.2,35.7,10.6,69,28,100,21.4,30.7,50.9,48.2,88.5,52.5,29.4,3.9,58.4,1.9,87-6,36-12.7,60.8-36.8,74.5-72.5,8.7-24.6,13.7-49.9,15-76,.5-149.7.7-299.3.5-449,51,3.7,101.7,10,152,19,.2,158.3,0,316.7-.5,475-8.5,115.8-67.7,191.6-177.5,227.5-73.2,19.6-146.8,21.6-221,6C76.8,727.8,10.9,650.6,.6,526,0,360.7-.1,195.3,0,30Z"/>
  <path fill="#000" d="M3029.3.1c134.3-3.1,242.4,47.9,324.5,153,72,102.9,90.7,214.9,56,336-42.4,124.7-126.2,207.6-251.5,248.5-118,32.2-227.4,13.9-328-55-116.3-89.4-167.4-207.6-153.5-354.5,18.7-121.4,80.2-213.9,184.5-277.5,52.2-29.9,108.2-46.7,168-50.5ZM3033.3,140.1c95.4-2.1,167.2,37.6,215.5,119,40.7,78.3,40.7,156.7,0,235-40.6,69.5-101.1,109-181.5,118.5-96.2,2.3-168.4-37.8-216.5-120.5-39.3-77-39.3-154,0-231,40.5-70.7,101.4-111,182.5-121Z"/>
  <path fill="#000" d="M4439.3,1.1c121.1,245,241.8,490.3,362,736-52.7,1.2-105.3,1.3-158,.5-22.8-50.7-45.1-101.5-67-152.5h-275c-22.1,50.9-44.8,101.5-68,152-51.7,1.2-103.3,1.3-155,.5,120.6-245.4,241-490.9,361-736.5ZM4439.3,264.1c28.3,65.5,55.6,131.5,82,198h-164c27.3-66,54.7-132,82-198Z"/>
  <path fill="#000" d="M2175.3,15.1h496c-1.3,41.2-5,82.2-11,123h-162v600h-151V138.1h-161c-6.1-40.8-9.8-81.8-11-123Z"/>
  <path fill="#000" d="M3511.3,15.1c79.7-.2,159.3,0,239,.5,73.2,2.5,141.6,21.9,205,58,77.1,48.9,124.9,118.4,143.5,208.5,14.3,70.8,12.3,141.2-6,211-32.9,106.2-101.4,178.7-205.5,217.5-44.3,15.7-90,24.7-137,27-79.7.5-159.3.7-239,.5V15.1ZM3649.3,137.1c27.7-.3,55.3.2,83,1.5,44.7,2.3,86.4,14.6,125,37,51.6,35.2,81.7,84.1,90.5,146.5,7,46.1,5,91.7-6,137-22.6,77.6-73.1,126.4-151.5,146.5-19.1,4.7-38.4,7.7-58,9-27.7,1.3-55.3,1.8-83,1.5V137.1Z"/>
  <path fill="#000" d="M4633.3,16.1c55.5-1.2,111.2-1.3,167-.5,57.7,105.2,115.5,210.4,173.5,315.5,57.4-105.4,115.3-210.6,173.5-315.5,54-.8,108-.7,162,.5-85.6,148.8-171.4,297.5-257.5,446-.5,92-.7,184-.5,276h-159c.2-91.7,0-183.3-.5-275-86.2-149.1-172.4-298.1-258.5-447Z"/>
  <path fill="#000" d="M5977.2,10.8c41.1-1.6,81.7,1.5,122,9.5,31.7,6.6,61.4,18.2,89,35,.6.7.9,1.6,1,2.5-9.5,40.1-23.7,78.4-42.5,115-37.3-18.2-76.8-28.1-118.5-29.5-58.9-3.8-112.6,10.9-161,44-50,39.8-79.5,91.6-88.5,155.5-8.2,55.7-1.2,109.4,21,161,31.6,64.9,82.8,105.4,153.5,121.5,57.9,10.6,114.9,6.9,171-11,11.7-4,23-8.8,34-14.5,17.6,36.7,30.9,74.8,40,114.5-20.4,13.5-42.4,23.9-66,31-84.5,23.9-169.1,24.6-254,2-118.4-36.1-197.9-112.6-238.5-229.5-27.4-91.9-25.7-183.2,5-274,47.4-119,133.5-193.1,258.5-222.5,24.6-5.2,49.2-8.8,74-10.5Z"/>
  <path fill="#000" d="M6551.2,10.8c136.1-3.4,245.2,48.6,327.5,156,72,105.6,89,219.6,51,342-36.2,100.5-102.3,174-198.5,220.5-103.7,45.3-207.7,45.9-312,2-96.6-45.6-163.8-118.5-201.5-218.5-37.7-115.6-25-225.3,38-329,70.6-104.6,169.1-162.2,295.5-173ZM6555.2,150.8c90.8-2.6,160.9,33.8,210.5,109,37.6,64.1,45.6,131.7,24,203-23.3,67.3-67.4,115.4-132.5,144.5-87.8,31.7-166.8,17-237-44-68.6-69.5-90.4-151.6-65.5-246.5,25.8-78.8,77.9-131.3,156.5-157.5,14.6-4,29.2-6.9,44-8.5Z"/>
  <circle class="st11" cx="7137.6" cy="622.2" r="141.5"/>
</svg>
